<svg xmlns="http://www.w3.org/2000/svg" xmlns:xlink="http://www.w3.org/1999/xlink" width="1920" height="435" viewBox="0 0 1920 435">
  <defs>
    <clipPath id="clip-path">
      <rect id="Rectangle_10289" data-name="Rectangle 10289" width="1920" height="435" transform="translate(0 4836)" fill="none" stroke="#707070" stroke-width="1"/>
    </clipPath>
    <linearGradient id="linear-gradient" x1="0.5" y1="0.27" x2="0.488" y2="1.379" gradientUnits="objectBoundingBox">
      <stop offset="0" stop-color="#f77a41"/>
      <stop offset="1" stop-color="#f07239"/>
    </linearGradient>
  </defs>
  <g id="Mask_Group_6" data-name="Mask Group 6" transform="translate(0 -4836)" clip-path="url(#clip-path)">
    <g id="Group_4163" data-name="Group 4163">
      <circle id="Ellipse_236" data-name="Ellipse 236" cx="276" cy="276" r="276" transform="translate(86 4919)" fill="#c4c4c4" opacity="0.3"/>
      <g id="Group_3470" data-name="Group 3470" transform="translate(-926 2117)" opacity="0.3">
        <path id="Path_10246" data-name="Path 10246" d="M4757.6,2757.359l-502.557,289.063" transform="matrix(1, -0.017, 0.017, 1, -2871.959, 79.088)" fill="none" stroke="#61c75d" stroke-linecap="round" stroke-width="3" opacity="0.237"/>
        <path id="Path_10247" data-name="Path 10247" d="M4260.838,3054.539,4335.7,3010.9" transform="translate(-2819 6)" fill="none" stroke="#61c75d" stroke-linecap="round" stroke-width="3" opacity="0.222"/>
        <path id="Path_10250" data-name="Path 10250" d="M4260.838,3054.539,4335.7,3010.9" transform="translate(-2621 -108)" fill="none" stroke="#61c75d" stroke-linecap="round" stroke-width="3" opacity="0.222"/>
        <path id="Path_10252" data-name="Path 10252" d="M4260.838,3054.539,4335.7,3010.9" transform="translate(-2445 -212)" fill="none" stroke="#61c75d" stroke-linecap="round" stroke-width="3" opacity="0.222"/>
        <path id="Path_10248" data-name="Path 10248" d="M4260.838,3054.539,4335.7,3010.9" transform="translate(-2732 -45)" fill="none" stroke="#61c75d" stroke-linecap="round" stroke-width="3" opacity="0.222"/>
        <path id="Path_10249" data-name="Path 10249" d="M4260.838,3054.539,4335.7,3010.9" transform="translate(-2534 -159)" fill="none" stroke="#61c75d" stroke-linecap="round" stroke-width="3" opacity="0.222"/>
        <path id="Path_10251" data-name="Path 10251" d="M4260.838,3054.539,4335.7,3010.9" transform="translate(-2358 -263)" fill="none" stroke="#61c75d" stroke-linecap="round" stroke-width="3" opacity="0.222"/>
      </g>
      <g id="Group_202" data-name="Group 202" transform="matrix(0.999, 0.035, -0.035, 0.999, -46.934, 326.916)" opacity="0.403">
        <path id="Path_530" data-name="Path 530" d="M523.722,625.68h562.436s26.214-52.635-84.671-43.861c0,0,2.023-72.39-60.473-35.107,0,0-26.2-43.279-46.365-10.667,0,0-94.743-113.969-161.267-12.167,0,0-60.488-15.973-64.516,29.754,0,0-72.573-15.685-68.533,39.142C600.333,592.774,531.791,584.01,523.722,625.68Z" transform="translate(888.169 4135.649)" fill="#d3622e"/>
        <path id="Path_536" data-name="Path 536" d="M523.722,625.68h562.436s26.214-52.635-84.671-43.861c0,0,2.023-72.39-60.473-35.107,0,0-26.2-43.279-46.365-10.667,0,0-94.743-113.969-161.267-12.167,0,0-60.488-15.973-64.516,29.754,0,0-72.573-15.685-68.533,39.142C600.333,592.774,531.791,584.01,523.722,625.68Z" transform="translate(1114.168 4119.649)" fill="#d3622e"/>
        <path id="Path_533" data-name="Path 533" d="M523.722,625.68h562.436s26.214-52.635-84.671-43.861c0,0,2.023-72.39-60.473-35.107,0,0-26.2-43.279-46.365-10.667,0,0-94.743-113.969-161.267-12.167,0,0-60.488-15.973-64.516,29.754,0,0-72.573-15.685-68.533,39.142C600.333,592.774,531.791,584.01,523.722,625.68Z" transform="translate(259.169 4163.649)" fill="#d3622e"/>
        <path id="Path_535" data-name="Path 535" d="M523.722,625.68h562.436s26.214-52.635-84.671-43.861c0,0,2.023-72.39-60.473-35.107,0,0-26.2-43.279-46.365-10.667,0,0-94.743-113.969-161.267-12.167,0,0-60.488-15.973-64.516,29.754,0,0-72.573-15.685-68.533,39.142C600.333,592.774,531.791,584.01,523.722,625.68Z" transform="translate(-379.831 4191.649)" fill="#d3622e"/>
        <path id="Path_531" data-name="Path 531" d="M523.722,625.68h562.436s26.214-52.635-84.671-43.861c0,0,2.023-72.39-60.473-35.107,0,0-26.2-43.279-46.365-10.667,0,0-94.743-113.969-161.267-12.167,0,0-60.488-15.973-64.516,29.754,0,0-72.573-15.685-68.533,39.142C600.333,592.774,531.791,584.01,523.722,625.68Z" transform="translate(642.169 4163.649)" fill="#d3622e"/>
        <path id="Path_532" data-name="Path 532" d="M523.722,625.68h562.436s26.214-52.635-84.671-43.861c0,0,2.023-72.39-60.473-35.107,0,0-26.2-43.279-46.365-10.667,0,0-94.743-113.969-161.267-12.167,0,0-60.488-15.973-64.516,29.754,0,0-72.573-15.685-68.533,39.142C600.333,592.774,531.791,584.01,523.722,625.68Z" transform="translate(13.169 4191.649)" fill="#d3622e"/>
      </g>
      <path id="Path_534" data-name="Path 534" d="M523.722,625.68h562.436s26.214-52.635-84.671-43.861c0,0,2.023-72.39-60.473-35.107,0,0-26.2-43.279-46.365-10.667,0,0-94.743-113.969-161.267-12.167,0,0-60.488-15.973-64.516,29.754,0,0-72.573-15.685-68.533,39.142C600.333,592.774,531.791,584.01,523.722,625.68Z" transform="translate(-624.832 4584.649)" fill="#f77a41"/>
      <path id="Path_529" data-name="Path 529" d="M1921.157,1985.717s-95.1-131.073-518.75-56.274S-7.891,2036.306-7.891,1758.882-5,2222.055-5,2222.055H1654.7s262.055,6.061,265.922,112.945S1921.157,1985.717,1921.157,1985.717Z" transform="translate(1 3139)" fill="url(#linear-gradient)"/>
      <g id="Group_201" data-name="Group 201" transform="translate(1 365)">
        <path id="Path_530-2" data-name="Path 530" d="M523.722,625.68h562.436s26.214-52.635-84.671-43.861c0,0,2.023-72.39-60.473-35.107,0,0-26.2-43.279-46.365-10.667,0,0-94.743-113.969-161.267-12.167,0,0-60.488-15.973-64.516,29.754,0,0-72.573-15.685-68.533,39.142C600.333,592.774,531.791,584.01,523.722,625.68Z" transform="translate(888.169 4135.649)" fill="#f77a41"/>
        <path id="Path_536-2" data-name="Path 536" d="M523.722,625.68h562.436s26.214-52.635-84.671-43.861c0,0,2.023-72.39-60.473-35.107,0,0-26.2-43.279-46.365-10.667,0,0-94.743-113.969-161.267-12.167,0,0-60.488-15.973-64.516,29.754,0,0-72.573-15.685-68.533,39.142C600.333,592.774,531.791,584.01,523.722,625.68Z" transform="translate(1114.168 4119.649)" fill="#f77a41"/>
        <path id="Path_533-2" data-name="Path 533" d="M523.722,625.68h562.436s26.214-52.635-84.671-43.861c0,0,2.023-72.39-60.473-35.107,0,0-26.2-43.279-46.365-10.667,0,0-94.743-113.969-161.267-12.167,0,0-60.488-15.973-64.516,29.754,0,0-72.573-15.685-68.533,39.142C600.333,592.774,531.791,584.01,523.722,625.68Z" transform="translate(259.169 4163.649)" fill="#f77a41"/>
        <path id="Path_535-2" data-name="Path 535" d="M523.722,625.68h562.436s26.214-52.635-84.671-43.861c0,0,2.023-72.39-60.473-35.107,0,0-26.2-43.279-46.365-10.667,0,0-94.743-113.969-161.267-12.167,0,0-60.488-15.973-64.516,29.754,0,0-72.573-15.685-68.533,39.142C600.333,592.774,531.791,584.01,523.722,625.68Z" transform="translate(-379.831 4191.649)" fill="#f77a41"/>
        <path id="Path_531-2" data-name="Path 531" d="M523.722,625.68h562.436s26.214-52.635-84.671-43.861c0,0,2.023-72.39-60.473-35.107,0,0-26.2-43.279-46.365-10.667,0,0-94.743-113.969-161.267-12.167,0,0-60.488-15.973-64.516,29.754,0,0-72.573-15.685-68.533,39.142C600.333,592.774,531.791,584.01,523.722,625.68Z" transform="translate(642.169 4163.649)" fill="#f77a41"/>
        <path id="Path_532-2" data-name="Path 532" d="M523.722,625.68h562.436s26.214-52.635-84.671-43.861c0,0,2.023-72.39-60.473-35.107,0,0-26.2-43.279-46.365-10.667,0,0-94.743-113.969-161.267-12.167,0,0-60.488-15.973-64.516,29.754,0,0-72.573-15.685-68.533,39.142C600.333,592.774,531.791,584.01,523.722,625.68Z" transform="translate(13.169 4191.649)" fill="#f77a41"/>
      </g>
    </g>
  </g>
</svg>
